<svg version="1.2" xmlns="http://www.w3.org/2000/svg" viewBox="0 0 370 377" width="63" height="64">
	<title>scijava-svg</title>
	<style>
		.s0 { fill: #c83d21;stroke: #ffffff;paint-order:stroke fill markers;stroke-linejoin: round;stroke-width: 48 } 
		.s1 { fill: #43211e } 
		.s2 { fill: #eee8be } 
	</style>
	<g id="Carpeta 1">
	</g>
	<g id="g3382">
		<g id="g3384">
			<path id="path3388" fill-rule="evenodd" class="s0" d="m301.2 70.8c61 61 61 159.9 0 220.9-30.5 30.5-70.5 45.7-110.5 45.7-31.5 0-63.1-9.5-90-28.5l-42.5 42.5c-2.2 2.1-5.7 2.1-7.8 0l-24.8-24.8c-2.1-2.2-2.1-5.7 0-7.8l41.8-41.8c-47.8-61.2-43.5-149.9 12.9-206.2 30.5-30.6 70.5-45.8 110.4-45.8 40 0 80 15.3 110.5 45.8zm8.9 110.4c0-31.9-12.4-61.8-35-84.4-22.5-22.5-52.5-34.9-84.4-34.9-31.8 0-61.8 12.4-84.4 34.9-22.5 22.6-34.9 52.5-34.9 84.4 0 31.9 12.4 61.9 34.9 84.4 22.6 22.5 52.6 35 84.4 35 31.9 0 61.9-12.5 84.4-35 22.6-22.5 35-52.5 35-84.4z"/>
			<path id="path3386" class="s1" d="m190.7 49.9c-35 0-68 13.7-92.8 38.5-24.8 24.8-38.4 57.7-38.4 92.8 0 35.1 13.6 68 38.4 92.8 24.8 24.8 57.8 38.5 92.8 38.5 35.1 0 68.1-13.7 92.9-38.5 24.8-24.8 38.4-57.7 38.4-92.8 0-35.1-13.6-68-38.4-92.8-24.8-24.8-57.8-38.5-92.9-38.5z"/>
			<path id="path3390" class="s2" d="m145.2 122.5q-4.3 1.1-6.9 3.1-3.3 2.8-5.2 7.9c-1.3 3.4-1.8 8.9-1.8 16.6 0 1 0.2 2 0.2 3v2.2c0 5.1-0.6 8.7-1.4 10.8-0.9 2.2-2.1 3.7-3.7 4.8-1.7 1-4.9 1.5-7.4 1.5v22.3c2.5 0 5.5 0.6 7.2 1.5 1.8 1 3 2.5 3.9 4.6 0.9 2.1 1.3 5.7 1.3 10.7q0 1.5-0.1 2.9-0.1 2.4-0.1 4.7 0 10.5 2.2 15.8c1.5 3.6 4.1 6.5 7.6 8.3 3.6 1.8 9.5 3 18 3h7.5v-21.5c-3.7 0-6.7-0.3-8.1-1.1-1.4-0.7-2.3-2-2.9-3.7-0.6-1.8-0.8-5.6-0.8-11.4 0-6.5-0.5-11.2-1.5-14.2q-1.5-4.4-3.6-6.6-2.1-2.2-6.4-4.2 4.2-1.8 6-3.6 2.4-2.3 3.7-6.1 1.8-5 1.8-13.7 0.1-8.7 0.6-10.7 0.8-3.5 2.8-5.3 2.1-1.7 6.1-1.7h2.3v-21.2h-8.1q-7.4 0-13.2 1.3z"/>
			<path id="path3392" class="s2" d="m251.6 166.1q-1.3-3.2-1.3-10.8v-2.2c0-1 0-2 0-3q0-11.5-1.9-16.6-1.9-5.1-5.3-7.9-2.5-2-6.8-3.1-5.8-1.3-13.2-1.3h-9.1v21.2h3.3q4 0 6 1.7 2.1 1.8 2.9 5.3 0.5 2 0.5 10.7 0.1 8.7 1.9 13.7 1.3 3.8 3.7 6.2 1.8 1.7 6 3.5-4.4 2-6.5 4.2-2.1 2.2-3.6 6.6-1.5 4.4-1.5 14.2 0 8.7-0.9 11.4c-0.6 1.7-1.8 3-3.2 3.7-1.4 0.8-3.6 1.1-8.6 1.1v21.5h8.5c8.4 0 14.4-1.2 18-3 3.5-1.8 6-4.6 7.6-8.2 1.5-3.5 2.2-8.8 2.2-15.9q0-2.3-0.1-4.6-0.1-1.5-0.1-3 0-7.5 1.4-10.7c0.9-2.1 2.2-3.6 3.9-4.6 1.7-0.9 3.6-1.5 7.4-1.5v-22.3c-3.8 0-5.8-0.5-7.5-1.5-1.7-1.1-2.9-2.6-3.7-4.8z"/>
		</g>
	</g>
</svg>